# xmcd
#
# Track frame offsets:
#	150
#	17214
#	32340
#	57328
#	70762
#	90284
#	119153
#	140920
#	163930
#	183568
#	201921
#	222794
#	246670
#	266212
#	292012
#
# Disc length: 4129 seconds
# Revision: 0
# Processed by: cddbd v1.5.2PL0 Copyright (c) Steve Scherf et al.
# Submitted via: dBpowerAMP V12.0
#
DISCID=f3101f0f
DTITLE=Paul Butler - Days Will Come
DYEAR=2014
DGENRE=Blues
TTITLE0=Madly
TTITLE1=I'll be there
TTITLE2=Shipwrecks
TTITLE3=End of the day
TTITLE4=If i were to leave you
TTITLE5=Cowboy dreams
TTITLE6=Georgia girl
TTITLE7=Can't help myself
TTITLE8=You're the one
TTITLE9=Home
TTITLE10=Mumbo Gumbo
TTITLE11=Winters in Australia
TTITLE12=Wrong side of desire
TTITLE13=Queen of the movies
TTITLE14=Days will come
EXTD=
EXTT0=
EXTT1=
EXTT2=
EXTT3=
EXTT4=
EXTT5=
EXTT6=
EXTT7=
EXTT8=
EXTT9=
EXTT10=
EXTT11=
EXTT12=
EXTT13=
EXTT14=
PLAYORDER=
